/* XPM */
static char *result[] = {
/* columns rows colors chars-per-pixel */
"64 64 251 2 ",
"   c #1E0A07",
".  c #1B110A",
"X  c #240A0A",
"o  c #2C1B0C",
"O  c #291507",
"+  c #35180A",
"@  c #2A1A12",
"#  c #271716",
"$  c #321E14",
"%  c #3A1B13",
"&  c #210A10",
"*  c #2E2219",
"=  c #342314",
"-  c #3B2315",
";  c #34241B",
":  c #3B281A",
">  c #342B22",
",  c #382A26",
"<  c #393226",
"1  c #3B3533",
"2  c #2B2522",
"3  c #441C0D",
"4  c #441E12",
"5  c #531B1A",
"6  c #4B2A1C",
"7  c #472618",
"8  c #542C1D",
"9  c #532A17",
"0  c #58321A",
"q  c #43311D",
"w  c #452C23",
"e  c #4C2E24",
"r  c #562B24",
"t  c #42342B",
"y  c #4C332B",
"u  c #493427",
"i  c #5C3424",
"p  c #53342B",
"a  c #5B362B",
"s  c #55392E",
"d  c #5C3B2E",
"f  c #533326",
"g  c #4C3C34",
"h  c #473937",
"j  c #543B34",
"k  c #5C3D34",
"l  c #533C3B",
"z  c #573934",
"x  c #633C2C",
"c  c #663926",
"v  c #633E33",
"b  c #663D38",
"n  c #723B39",
"m  c #703C24",
"M  c #602B19",
"N  c #4D4338",
"B  c #5B423B",
"V  c #584237",
"C  c #5F402E",
"Z  c #6E412E",
"A  c #66432F",
"S  c #644233",
"D  c #6B4434",
"F  c #64433A",
"G  c #6C453B",
"H  c #6D4A3C",
"J  c #68493B",
"K  c #714433",
"L  c #754934",
"P  c #754C3C",
"I  c #7B4E3B",
"U  c #784838",
"Y  c #7C523C",
"T  c #78503B",
"R  c #594945",
"E  c #5A5348",
"W  c #514B48",
"Q  c #6E4D43",
"!  c #654443",
"~  c #774C46",
"^  c #6D534C",
"/  c #685549",
"(  c #7B5243",
")  c #7D5946",
"_  c #785549",
"`  c #675A56",
"'  c #785855",
"]  c #796458",
"[  c #726351",
"{  c #796964",
"}  c #7A726A",
"|  c #736C6C",
" . c #82513C",
".. c #8E5439",
"X. c #834546",
"o. c #825543",
"O. c #845946",
"+. c #895C45",
"@. c #845C4C",
"#. c #8B5D4A",
"$. c #885548",
"%. c #8B5B56",
"&. c #8B634A",
"*. c #876148",
"=. c #93644A",
"-. c #886857",
";. c #9B6D54",
":. c #9C6D5A",
">. c #956855",
",. c #9D725B",
"<. c #967159",
"1. c #A3745B",
"2. c #A57B5D",
"3. c #A8765A",
"4. c #B37C5B",
"5. c #A86E50",
"6. c #8A6862",
"7. c #966463",
"8. c #877565",
"9. c #937463",
"0. c #9C7866",
"q. c #887873",
"w. c #987A78",
"e. c #A46A68",
"r. c #AB7C62",
"t. c #A47A69",
"y. c #B17E67",
"u. c #B4835F",
"i. c #9C816E",
"p. c #9F8C77",
"a. c #AD836D",
"s. c #A7836A",
"d. c #B6896D",
"f. c #BB8B6B",
"g. c #B88367",
"h. c #A88674",
"j. c #B58C73",
"k. c #B78B78",
"l. c #BB947B",
"z. c #B6947B",
"x. c #B59276",
"c. c #C28C6B",
"v. c #C78B66",
"b. c #C8936E",
"n. c #C38F73",
"m. c #C4957C",
"M. c #C49A7A",
"N. c #CA9A79",
"B. c #D39A77",
"V. c #CEA27D",
"C. c #C6A07C",
"Z. c #D9A27C",
"A. c #E0A57D",
"S. c #867D82",
"D. c #BF7983",
"F. c #958B87",
"G. c #958F8D",
"H. c #BB9885",
"J. c #A59D96",
"K. c #B49C98",
"L. c #AE8E87",
"P. c #BBA699",
"I. c #BBA28C",
"U. c #B2ABA8",
"Y. c #C39C84",
"T. c #CB9D83",
"R. c #C29D8A",
"E. c #C89983",
"W. c #D49F81",
"Q. c #CA9D94",
"!. c #D59294",
"~. c #CDA483",
"^. c #C7A48A",
"/. c #D4A385",
"(. c #D6AB83",
"). c #D4A58B",
"_. c #D5AA8B",
"`. c #DBAC8B",
"'. c #DBA784",
"]. c #DDB18F",
"[. c #DCB187",
"{. c #CCAA97",
"}. c #D3AB92",
"|. c #DCAD92",
" X c #D5AD99",
".X c #DCB293",
"XX c #DBB49B",
"oX c #DDB99E",
"OX c #D5B19B",
"+X c #E2AC87",
"@X c #E7B28D",
"#X c #E3B393",
"$X c #EBBB95",
"%X c #E4BA9B",
"&X c #EBBD9B",
"*X c #E5B79A",
"=X c #F2BC9B",
"-X c #E1AF94",
";X c #CEB4A4",
":X c #D9B9A7",
">X c #C6BBB6",
",X c #CBB5AD",
"<X c #E8ABA3",
"1X c #E3BCA3",
"2X c #EBBDA2",
"3X c #EAB9AA",
"4X c #F4BDA4",
"5X c #F1B5B0",
"6X c #EEC29D",
"7X c #F3C29C",
"8X c #D2C5BB",
"9X c #EDC2A4",
"0X c #E3C2AC",
"qX c #ECC5AB",
"wX c #ECC9AE",
"eX c #E6C5A9",
"rX c #F1C4A3",
"tX c #F3C5AB",
"yX c #F2CAAD",
"uX c #FCCCAD",
"iX c #FAC7A5",
"pX c #FCD1AD",
"aX c #F7D0AF",
"sX c #ECCAB3",
"dX c #E9C9B8",
"fX c #F4CDB3",
"gX c #FBCEB2",
"hX c #F6CCB7",
"jX c #ECD3B6",
"kX c #F4D1B5",
"lX c #FDD2B6",
"zX c #F5D3BA",
"xX c #FBD4BB",
"cX c #FEDABD",
"vX c #FBDAB7",
"bX c #D7CDC9",
"nX c #ECD7C5",
"mX c #F4DDC5",
"MX c #FDDBC4",
"NX c #F4DECC",
"BX c #FBDECA",
"VX c #F9D4C1",
"CX c #F0CDC5",
"ZX c #F3E2CD",
"AX c #FFE2CD",
"SX c #FFE3C6",
"DX c #F2E3D3",
"FX c #EEE2D1",
"GX c #FFFBF8",
"HX c #F9EFE6",
"JX c None",
/* pixels */
"JXJXJXJXJXJXJXJXJXJXJXJXJXJXJXJXJXJXJXJXJXJXJXJXJXJXJXJXJXJXJXJXJXJXJXJXJXJXJXJXJXJXJXJXJXJXJXJXJXJXJXJXJXJXJXJXJXJXJXJXJXJXJXJX",
"JXJXJXJXJXJXJXJXJXJXJXJXJXJXJXJXJXJXJXJXJXJXJXJXJXJXJXJXJXJXJXJXJXJXJXJXJXJXJXJXJXJXJXJXJXJXJXJXJXJXJXJXJXJXJXJXJXJXJXJXJXJXJXJX",
"JXJXJXJXJXJXJXJXJXJXJXJXJXJXJXJXJXJXJXJXJXJXJXJXJXJXJXJXJXJXJXJXJXJXJX< W JXJXJXJXJXJXJXJXJXJXJXJXJXJXJXJXJXJXJXJXJXJXJXJXJXJXJX",
"JXJXJXJXJXJXJXJXJXJXJXJXJXJXJXJXJXJXJXJXJXJXJXJXJXJXJXJ.} JXE [ [ B > o g / E N 1 [ JXJXJXJXJXJXJXJXJXJXJXJXJXJXJXJXJXJXJXJXJXJX",
"JXJXJXJXJXJXJXJXJXJXJXJXJXJXJXJXJXJXJXJXJXJXJXJXJXJ.E < < < q < = o o N [ / t > t > J U.JXJXJXJXJXJXJXJXJXJXJXJXJXJXJXJXJXJXJXJX",
"JXJXJXJXJXJXJXJXJXJXJXJXJXJXJXJXJXJXJXJXJXJX8XG.` N = o . . o : o = q J [ N : : N t < N G.JXJXJXJXJXJXJXJXJXJXJXJXJXJXJXJXJXJXJX",
"JXJXJXJXJXJXJXJXJXJXJXJXJXJXJXJXJXJXJXJXHX>X} < N = o = q : = - : q q q = . . = o > < g | U.JXJXJXJXJXJXJXJXJXJXJXJXJXJXJXJXJXJX",
"JXJXJXJXJXJXJXJXJXJXJXJXJXJXJXJXJXJXbXF.E N g s = o o + = o o + + : = O = : q C V B B E R W ` | JXJXJXJXJXJXJXJXJXJXJXJXJXJXJXJX",
"JXJXJXJXJXJXJXJXJXJXJXJXJXJXJXJXGXGXq.E ! @ 6 6 7 9 9 9 0 9 9 7 q - = + O + % e l l l l h 1 h h ` JXJXJXJXJXJXJXJXJXJXJXJXJXJXJX",
"JXJXJXJXJXJXJXJXJXJXJXJXJXJXJXJXGXq.^ y ! v 7 x ;.1.a.k.d.,.Y x d j p y w - 4 7 7 % % # & & # 2 1 JXJXJXJXJXJXJXJXJXJXJXJXJXJXJX",
"JXJXJXJXJXJXJXJXJXJXJXJXJXJXJXJXP.y ' ^ x 9 :.W.#X#X*X4X4XXXE.t.9.6.6.-._ b 6 3 3 % % #     # , | JXJXJXJXJXJXJXJXJXJXJXJXJXJXJX",
"JXJXJXJXJXJXJXJXJXJXJXJXJXJXJX8X^ f H ) I +.2X4XiX=X=X4XtXtXqX3X{.{.R.L.y.>.P c 3 3 + + & & & # # W U.JXJXJXJXJXJXJXJXJXJXJXJXJX",
"JXJXJXJXJXJXJXJXJXJXJXJXJXJXJXG.^ A A ) ;.-X@X$X=XiXiXuXuXyXtXqXhXdXeXXX).m.2.=.n c 9 % + X     2 1 G.JXJXJXJXJXJXJXJXJXJXJXJXJX",
"JXJXJXJXJXJXJXJXJXJXJXJXJXJXJX} / -.T x.N.=X=XpXiXiXuXgXaXwXsXfXfXhXwX9X*X#X/.b.c.;.I i 6 % + # . 2 1 J.JXJXJXJXJXJXJXJXJXJXJXJX",
"JXJXJXJXJXJXJXJXJXJXJXJXJXJXJX} 8.s.*.XXyXiXvX7XpXpXuXpXaXkXjXmXwXaXiX6X&X7X$XA.Z.c.;.Y c 6 + o 2 1 # W JXJXJXJXJXJXJXJXJXJXJXJX",
"JXJXJXJXJXJXJXJXJXJXJXJXJXJXU.q.<.-.oXoX[.pX$XvXvXvXcXSXSXmXjXeXkXlXpXrX7X7X=X@X+XB.c.2.&.A 6 - . < 2 2 JXJXJXJXJXJXJXJXJXJXJXJX",
"JXJXJXJXJXJXJXJXJXJXJXJXJXJXp.i.) f.[.6X6X7XrXvXvXZXZXZXZXSXjXjXzXzXfXsXyXtX=X$XA.A.u.u.,.T S - . * < * JXJXJXJXJXJXJXJXJXJXJXJX",
"JXJXJXJXJXJXJXJXJXJXJXJXJXJXp.<.;.C.A.6X6X6XrXvXnXZXFXDXZXZXjXjXsXzXzXsXsXtXtXiX@XA.v.4.3.*.D 7 O . @ * JXJXJXJXJXJXJXJXJXJXJXJX",
"JXJXJXJXJXJXJXJXJXJXJXJXJXJXi.&.u.C.6X6X6X7XaXvXmXZXZXFXZXmXjXjXsXzXVXjXwXwXtXiX=XB.v.4.3.;.D e $ o o * h JXJXJXJXJXJXJXJXJXJXJX",
"JXJXJXJXJXJXJXJXJXJXJXJXJXHXi.[ i.b.6XA.6X7XjXSXBXZXFXFXZXmXjXeXkXxXzXhXqXtXtX=X@Xv.v.4.3.;.c e q * * # > JXJXJXJXJXJXJXJXJXJXJX",
"JXJXJXJXJXJXJXJXJXJXJXJXJXDX8.) s./.$X$X7XrXpXvXBXZXZXZXZXZXjXwXkXgXyXwXsXyX4X$XA.v.B.u.3.=.i f e = ; # @ F.JXJXJXJXJXJXJXJXJXJX",
"JXJXJXJXJXJXJXJXJXJXJXJXJXbX8.[ d.(.$X6X6X7XrXjXBXZXNXFXZXzXkXkXyXyXwXtXhXhX9X-XA.v.B.v.3.o.i f 6 , * * < W JXJXJXJXJXJXJXJXJXJX",
"JXJXJXJXJXJXJXJXJXJXJXJXJXbX} -.x.[.6X#X6X6XaXvXBXNXNXNXmXcXzXyXrXtXfXfXhXfX<X-XW.B.v.v.1.L x f w w ; > 1 W JXJXJXJXJXJXJXJXJXJX",
"JXJXJXJXJXJXJXJXJXJXJXJXJXJX{ -.l..X6X#X6XrXaXvXBXNXZXNXSXMXxXgXrXgXlXhXhXtX2X+X'.B.g.g.;.c v e u ; ; @ @ G.JXJXJXJXJXJXJXJXJXJX",
"JXJXJXJXJXJXJXJXJXJXJXJXJX>X{ -.^..X%X&X7XrX2XeX0X0XNXnXsX3XgX%X&XgXfXfX3X X1X*Xm.n.c.r.#.n p p w @ t * * JXJXJXJXJXJXJXJXJXJXJX",
"JXJXJXJXJXJXJXJXJXJXJXJXGXbX-.9.}._.6XrX`.(.).l.H.i.9.h.R.1X#X/.#X).}.XX X{.{.k.|./.n.r. .i 5 w y o @ > h >XJXJXJXJXJXJXJXJXJXJX",
"JXJXJXJXJXJXJXJXJXJXJXJXHXnXi.t.l.eX6X#X#Xf.=.&.) _ p S x #.5.W.'.m.).R.0.t.t.9.>.:.1.:.#.G a y u $ . t ` JXJXJXJXJXJXJXJXJXJXJX",
"JXJXJXJXJXJXJXJXJXJXJXGXnXdXs.,.1X).#X].f.f.).x.s.<.J D m U  .4.N.d.t.@.J v f b ( $.>.>._ F p w w ; @ t q.JXJXJXJXJXJXJXJXJXJXJX",
"JXJXJXJXJXJXJXJXJXJXJXHXP.:Xy.>.T.wX9X`.`.3.m c + + 7 9 m m =.B.#XT.o.7 s p % f 7 8 8 8 r a l l t $ , t J.JXJXJXJXJXJXJXJXJXJXJX",
"JXJXJXJXJXJXJXJXJXJXJXDX{.3XE.g.yX1XrX&XT.B.T.d.P O.-.P K m 4.4XlX2X) 6 p w w z Q ~ P b z z l z u @ ; l JXJXJXJXJXJXJXJXJXJXJXJX",
"JXJXJXJXJXJXJXJXJXJXJXDX8XqX`.+X%XfXyXrXuX4X~.Y.R.t.-.&.t.T.4XiXgX-XP a w - ^ F % 4 e e p z l g t $ t { JXJXJXJXJXJXJXJXJXJXJXJX",
"JXJXJXJXJXJXJXJXJXJXJXFXdX*XB.`.2X3XfXcXcXlX2XT.a.t.0.H.m.4XuX4XVXE.x P b ~ K.' v v a r e z ! l w : B J.JXJXJXJXJXJXJXJXJXJXJXJX",
"JXJXJXJXJXJXJXJXJXJXJXnXAX}.|.`.&XwXkXvXMXMXVX0XdXI.1XsXhX%XlXtXVXE.c c >.e.>.a.2. .i 9 r f a k w w u N JXJXJXJXJXJXJXJXJXJXJXJX",
"JXJXJXJXJXJXJXJXJXJXJXdXAX1X4X&X%X9XwXfXlXVXnXzXCX3XBXMXxX:XlXlX5Xe.n I =.3.3.3. .c 0 c x v v b 4 4 e R JXJXJXJXJXJXJXJXJXJXJXJX",
"JXJXJXJXJXJXJXJXJXJXJXdXAXxXgX#X%X%X1XqXsXhXVXBXAXMXAXVXxXwXyXfXqX:.D I $.r.N.k.y.1.:.9.>.@.! H i a j 8.JXJXJXJXJXJXJXJXJXJXJXJX",
"JXJXJXJXJXJXJXJXJXJXGXnXAXBXhX).%X#X%XqXsX0XdXMXMXAXVXeX0X1XqXkX5Xt.K m  .r.W.).-XQ.N.k.0._ G b G Q Q J.JXJXJXJXJXJXJXJXJXJXJXJX",
"JXJXJXJXJXJXJXJXJXJXJXJXnXAXVX}.`.`.#X9X9X9XwXcXzXVXsXXX.XeXwXMX:Xj.L Z +.y.f.T./.N.l.a.>.( G ~ G ~ ^ >XJXJXJXJXJXJXJXJXJXJXJXJX",
"JXJXJXJXJXJXJXJXJXJXJXJXdXCXVX*X)./.].&X9XqXwXsXwXoX^.{.OXzXvXcX1XY.I 0 +.3.r.N.m.l.d.y.>.( G ~ ~ %.' JXJXJXJXJXJXJXJXJXJXJXJXJX",
"JXJXJXJXJXJXJXJXJXJXJXJXJXdX0X:X/.`.#X#X6XeXwXeXoX^.^.}.~.XXoXOXOXa.Z 0 Y 1.d.f.d.r.1.>.( x a b X.6.' JXJXJXJXJXJXJXJXJXJXJXJXJX",
"JXJXJXJXJXJXJXJXJXJXJXJXJX,X:XOX).+X@X#X6XrX6X6X~.oXkXkX<.*.<.j.h.( c Z L 1.d.;.r.;.+.I D x n _ ! %.^ JXJXJXJXJXJXJXJXJXJXJXJXJX",
"JXJXJXJXJXJXJXJXJXJXJXJXJXJX,X;X|.'.@X#X#X6X9XoX%XcXfXcXqXa.#.n P 8 7 c I =.1.;.*.*.L  .r v @._ b ~ w.JXJXJXJXJXJXJXJXJXJXJXJXJX",
"JXJXJXJXJXJXJXJXJXJXJXJXJXJXJXJX|.'.'.#X#X$X6X%X2XlXfX1XfXhXm.$.i 9 9 c Z Y ;.,.;.+.Z L 6 z ! b ! ' JXJXJXJXJXJXJXJXJXJXJXJXJXJX",
"JXJXJXJXJXJXJXJXJXJXJXJXJXJXJXJX*X/.'.#X].$X6X9XlXqXMXMXMX5Xk.Q.t.( c i Z +.:.,.&.( Z ( b ~ 6.^ ! D.JXJXJXJXJXJXJXJXJXJXJXJXJXJX",
"JXJXJXJXJXJXJXJXJXJXJXJXJXJXJXJX1X)./.`.[.%XrX9X/.2XlX<X<X5X5XCXQ.e.~ n K $.=.$.O.T D H z b ^ z ` JXJXJXJXJXJXJXJXJXJXJXJXJXJXJX",
"JXJXJXJXJXJXJXJXJXJXJXJXJXJXJXJX:X|.[._._.6X9X.X|.|.y.e.5.e.e.e.e.7.%.%.X.X.$.$.O.T G V p p { ` K.JXJXJXJXJXJXJXJXJXJXJXJXJXJXJX",
"JXJXJXJXJXJXJXJXJXJXJXJXJXJXJXJXOX|..X.X.X6X%XM.=. .M $.e.X.X.X.X.n n n n $.>.#.( H S p l ' ,XbXJXJXJXJXJXJXJXJXJXJXJXJXJXJXJXJX",
"JXJXJXJXJXJXJXJXJXJXJXJXJXJXJXJXdX_._..X.X_._.~./.4X5X5X5X<X!.D.e.~ r 5 r  .$.~ O.D d w l { JXJXJXJXJXJXJXJXJXJXJXJXJXJXJXJXJXJX",
"JXJXJXJXJXJXJXJXJXJXJXJXJXJXJXJXJX X^..X_.M.C.`.uX<X4X<X5X<X!.<X!.D.e.%.n ~ $.X.~ k p w R w.JXJXJXJXJXJXJXJXJXJXJXJXJXJXJXJXJXJX",
"JXJXJXJXJXJXJXJXJXJXJXJXJXJXJXJXJX:X{.^.(.(.V.Z.6X[.rX[.N.5.5...=.$.$.#.o.Y @.) H p p h W JXJXJXJXJXJXJXJXJXJXJXJXJXJXJXJXJXJXJX",
"JXJXJXJXJXJXJXJXJXJXJXJXJXJXJXJXJX8XI.^.C.C.M.[.[.V.[.C.c.5.5.5.=. . . .L T O.) F z l R | JXJXJXJXJXJXJXJXJXJXJXJXJXJXJXJXJXJXJX",
"JXJXJXJXJXJXJXJXJXJXJXJXJXJXJXJXJXDXI.^.C.C.C.[.].~.C.C.~.b.B.B.;.=.o.U K K ( H k p l ! | JXJXJXJXJXJXJXJXJXJXJXJXJXJXJXJXJXJXJX",
"JXJXJXJXJXJXJXJXJXJXJXJXJXJXJXJXJXHXI.H.C.(.V.[.].%XaXvXcX#Xf.3.m.y.,.#.P I P x p s R R q.JXJXJXJXJXJXJXJXJXJXJXJXJXJXJXJXJXJXJX",
"JXJXJXJXJXJXJXJXJXJXJXJXJXJXJXJXJXJX;Xz.s.C.V.V..XOX}.oXeX2X<XgX1X{.k.t.*.) T k s k B R | JXJXJXJXJXJXJXJXJXJXJXJXJXJXJXJXJXJXJX",
"JXJXJXJXJXJXJXJXJXJXJXJXJXJXJXJXJXJXCX^.s.u.f.l.~.oX:XdXqX}.y.E.1XH.t.:.) ) H C V F R R ` U.JXJXJXJXJXJXJXJXJXJXJXJXJXJXJXJXJXJX",
"JXJXJXJXJXJXJXJXJXJXJXJXJXJXJXJXJX{.nX^.d.2.;.u.s.I.x.I.H.k.0.{.^.9.) _ D S S v B B l l W J.JXJXJXJXJXJXJXJXJXJXJXJXJXJXJXJXJXJX",
"JXJXJXJXJXJXJXJXJXJXJXJXJXJXJXJXJXq.;XI.C.u.*.*.&.p.9.h.w.7.@.H.z._ C C d f d S V j l l W G.JXJXJXJXJXJXJXJXJXJXJXJXJXJXJXJXJXJX",
"JXJXJXJXJXJXJXJXJXJXJXJXJXJXJXJXJX' L.;X:Xd.,.Y T H H ' _ G b P Q V s S F C s s p y h l h G.JXJXJXJXJXJXJXJXJXJXJXJXJXJXJXJXJXJX",
"JXJXJXJXJXJXJXJXJXJXJXJXJXJXJXJXJXJXP.{.k.Y.x.,.T C y p p r x G F s p p f u y p y z l l h S.JXJXJXJXJXJXJXJXJXJXJXJXJXJXJXJXJXJX",
"JXJXJXJXJXJXJXJXJXJXJXJXJXJXJXJXJXJXP.:XH. Xl.j.8.) H F b z i i 6 p k k k k k j z h h 1 W S.JXJXJXJXJXJXJXJXJXJXJXJXJXJXJXJXJXJX",
"JXJXJXJXJXJXJXJXJXJXJXJXJXJXJXJXJXJXF.,X{.:Xl.l.<.-.^ Q Q G b x p B F k z s y w l , 1 1 | G.JXJXJXJXJXJXJXJXJXJXJXJXJXJXJXJXJXJX",
"JXJXJXJXJXJXJXJXJXJXJXJXJXJXJXJXJX} J.{.{.OXI.^.z.i.-._ H G D P b ! b z p b R j l 1 h h ` JXJXJXJXJXJXJXJXJXJXJXJXJXJXJXJXJXJXJX",
"JXJXJXJXJXJXJXJXJXJXJXJXJXJXJXJXJXJXJXJX0X{.^.z.I.L.h.8.@.( L K b b B k k k p JXJXJX2 ` JXJXJXJXJXJXJXJXJXJXJXJXJXJXJXJXJXJXJXJX",
"JXJXJXJXJXJXJXJXJXJXJXJXJXJXJXJXJXJXJXJXJXJXJX{.z.z.h.h.t.,.#.U ! ! JXJXJXJXJXJXJXJXJXJXJXJXJXJXJXJXJXJXJXJXJXJXJXJXJXJXJXJXJXJX",
"JXJXJXJXJXJXJXJXJXJXJXJXJXJXJXJXJXJXJXJXJXJXJXJXJXJXJXJXJXJXJXJXJXJXJXJXJXJXJXJXJXJXJXJXJXJXJXJXJXJXJXJXJXJXJXJXJXJXJXJXJXJXJXJX"
};
